<!-- Generated by IcoMoon.io -->
<svg version="1.1" xmlns="http://www.w3.org/2000/svg" width="983" height="1024" viewBox="0 0 983 1024">
<title></title>
<g id="icomoon-ignore">
</g>
<path fill="#fff" d="M225.28 413.696c90.112 0 163.84-73.728 163.84-163.84s-73.728-163.84-163.84-163.84-163.84 73.728-163.84 163.84 73.728 163.84 163.84 163.84z"></path>
<path fill="#123573" d="M225.28 434.176c-102.4 0-184.32-81.92-184.32-184.32s81.92-184.32 184.32-184.32 184.32 81.92 184.32 184.32-81.92 184.32-184.32 184.32zM225.28 106.496c-77.824 0-143.36 61.44-143.36 143.36 0 77.824 65.536 143.36 143.36 143.36s143.36-65.536 143.36-143.36c0-81.92-65.536-143.36-143.36-143.36z"></path>
<path fill="#fff" d="M225.28 987.136c90.112 0 163.84-73.728 163.84-163.84s-73.728-163.84-163.84-163.84-163.84 73.728-163.84 163.84 73.728 163.84 163.84 163.84z"></path>
<path fill="#123573" d="M225.28 1007.616c-102.4 0-184.32-81.92-184.32-184.32s81.92-184.32 184.32-184.32 184.32 81.92 184.32 184.32-81.92 184.32-184.32 184.32zM225.28 679.936c-77.824 0-143.36 65.536-143.36 143.36s65.536 143.36 143.36 143.36 143.36-65.536 143.36-143.36-65.536-143.36-143.36-143.36z"></path>
<path fill="#fff" d="M798.72 413.696c90.112 0 163.84-73.728 163.84-163.84s-73.728-163.84-163.84-163.84-163.84 73.728-163.84 163.84 73.728 163.84 163.84 163.84z"></path>
<path fill="#123573" d="M798.72 434.176c-102.4 0-184.32-81.92-184.32-184.32s81.92-184.32 184.32-184.32 184.32 81.92 184.32 184.32-81.92 184.32-184.32 184.32zM798.72 106.496c-77.824 0-143.36 65.536-143.36 143.36s65.536 143.36 143.36 143.36 143.36-65.536 143.36-143.36c0-81.92-65.536-143.36-143.36-143.36z"></path>
<path fill="#fff" d="M798.72 987.136c90.112 0 163.84-73.728 163.84-163.84s-73.728-163.84-163.84-163.84-163.84 73.728-163.84 163.84 73.728 163.84 163.84 163.84z"></path>
<path fill="#123573" d="M798.72 1007.616c-102.4 0-184.32-81.92-184.32-184.32s81.92-184.32 184.32-184.32 184.32 81.92 184.32 184.32-81.92 184.32-184.32 184.32zM798.72 679.936c-77.824 0-143.36 65.536-143.36 143.36s65.536 143.36 143.36 143.36 143.36-65.536 143.36-143.36-65.536-143.36-143.36-143.36z"></path>
<path fill="#071d46" d="M593.92 638.976h-163.84c-12.288 0-20.48-8.192-20.48-20.48v-163.84c0-12.288 8.192-20.48 20.48-20.48h163.84c12.288 0 20.48 8.192 20.48 20.48v163.84c0 8.192-8.192 20.48-20.48 20.48zM450.56 598.016h122.88v-122.88h-122.88v122.88z"></path>
<path fill="#071d46" d="M430.080 475.136c-4.096 0-12.288 0-16.384-4.096l-204.8-204.8c-4.096-12.288-4.096-24.576 0-32.768s20.48-8.192 28.672 0l204.8 204.8c8.192 8.192 8.192 20.48 0 28.672 0 4.096-8.192 8.192-12.288 8.192z"></path>
<path fill="#071d46" d="M225.28 843.776c-4.096 0-12.288 0-16.384-4.096-8.192-8.192-8.192-20.48 0-28.672l204.8-204.8c8.192-8.192 20.48-8.192 28.672 0s8.192 20.48 0 28.672l-204.8 204.8c0 0-8.192 4.096-12.288 4.096z"></path>
<path fill="#071d46" d="M798.72 843.776c-4.096 0-12.288 0-16.384-4.096l-204.8-204.8c-8.192-8.192-8.192-20.48 0-28.672s20.48-8.192 28.672 0l204.8 204.8c8.192 8.192 8.192 20.48 0 28.672 0 0-8.192 4.096-12.288 4.096z"></path>
<path fill="#071d46" d="M593.92 475.136c-4.096 0-12.288 0-16.384-4.096-8.192-8.192-8.192-20.48 0-28.672l204.8-204.8c8.192-8.192 20.48-8.192 28.672 0s8.192 20.48 0 28.672l-204.8 204.8c0 0-8.192 4.096-12.288 4.096z"></path>
</svg>
